<?xml version="1.0" encoding="UTF-8"?>
<!DOCTYPE svg PUBLIC "-//W3C//DTD SVG 1.1//EN" "http://www.w3.org/Graphics/SVG/1.1/DTD/svg11.dtd">
<!-- Creator: CorelDRAW 2018 (64 Bit Versión de evaluación) -->
<svg xmlns="http://www.w3.org/2000/svg" xml:space="preserve" width="2598px" height="4200px" version="1.1" style="shape-rendering:geometricPrecision; text-rendering:geometricPrecision; image-rendering:optimizeQuality; fill-rule:evenodd; clip-rule:evenodd"
viewBox="0 0 977.38 1579.99"
 xmlns:xlink="http://www.w3.org/1999/xlink">
 <defs>
  <style type="text/css">
   <![CDATA[
    .fil1 {fill:black}
    .fil0 {fill:#0D0D0D}
   ]]>
  </style>
 </defs>
 <g id="Capa_x0020_1">
  <metadata id="CorelCorpID_0Corel-Layer"/>
  <rect class="fil0" x="-0.02" width="977.38" height="1579.99"/>
  <polygon class="fil1" points="602.72,1335.47 667.87,1297.85 602.72,1260.23 "/>
  <polygon class="fil1" points="602.72,1448.32 667.87,1410.7 602.72,1373.08 "/>
  <polygon class="fil1" points="602.72,1561.18 667.87,1523.56 602.72,1485.94 "/>
  <polygon class="fil1" points="700.45,1391.89 765.61,1354.28 700.45,1316.66 "/>
  <polygon class="fil1" points="798.19,1335.47 863.35,1297.85 798.19,1260.23 "/>
  <polygon class="fil1" points="798.19,1448.32 863.35,1410.7 798.19,1373.08 "/>
  <polygon class="fil1" points="700.45,1504.75 765.61,1467.13 700.45,1429.51 "/>
  <polygon class="fil1" points="895.93,1391.89 961.09,1354.28 895.93,1316.66 "/>
  <polygon class="fil1" points="895.93,1504.75 961.09,1467.13 895.93,1429.51 "/>
  <polygon class="fil1" points="798.19,1561.18 863.35,1523.56 798.19,1485.94 "/>
  <polygon class="fil1" points="16.29,1335.47 81.45,1297.85 16.29,1260.23 "/>
  <polygon class="fil1" points="16.29,1448.32 81.45,1410.7 16.29,1373.08 "/>
  <polygon class="fil1" points="114.03,1279.04 179.19,1241.42 114.03,1203.8 "/>
  <polygon class="fil1" points="114.03,1391.89 179.19,1354.28 114.03,1316.66 "/>
  <polygon class="fil1" points="211.76,1335.47 276.92,1297.85 211.76,1260.23 "/>
  <polygon class="fil1" points="211.76,1448.32 276.92,1410.7 211.76,1373.08 "/>
  <polygon class="fil1" points="114.03,1504.75 179.19,1467.13 114.03,1429.51 "/>
  <polygon class="fil1" points="16.29,1561.18 81.45,1523.56 16.29,1485.94 "/>
  <polygon class="fil1" points="211.76,1561.18 276.92,1523.56 211.76,1485.94 "/>
  <polygon class="fil1" points="309.5,1279.04 374.66,1241.42 309.5,1203.8 "/>
  <polygon class="fil1" points="309.5,1391.89 374.66,1354.28 309.5,1316.66 "/>
  <polygon class="fil1" points="407.24,1335.47 472.4,1297.85 407.24,1260.23 "/>
  <polygon class="fil1" points="407.24,1448.32 472.4,1410.7 407.24,1373.08 "/>
  <polygon class="fil1" points="309.5,1504.75 374.66,1467.13 309.5,1429.51 "/>
  <polygon class="fil1" points="504.98,1279.04 570.14,1241.42 504.98,1203.8 "/>
  <polygon class="fil1" points="504.98,1391.89 570.14,1354.28 504.98,1316.66 "/>
  <polygon class="fil1" points="504.98,1504.75 570.14,1467.13 504.98,1429.51 "/>
  <polygon class="fil1" points="407.24,1561.18 472.4,1523.56 407.24,1485.94 "/>
  <polygon class="fil1" points="602.72,884.04 667.87,846.42 602.72,808.8 "/>
  <polygon class="fil1" points="602.72,996.9 667.87,959.28 602.72,921.66 "/>
  <polygon class="fil1" points="602.72,1109.75 667.87,1072.13 602.72,1034.52 "/>
  <polygon class="fil1" points="602.72,1222.61 667.87,1184.99 602.72,1147.37 "/>
  <polygon class="fil1" points="700.45,827.61 765.61,789.99 700.45,752.38 "/>
  <polygon class="fil1" points="700.45,940.47 765.61,902.85 700.45,865.23 "/>
  <polygon class="fil1" points="798.19,884.04 863.35,846.42 798.19,808.8 "/>
  <polygon class="fil1" points="798.19,996.9 863.35,959.28 798.19,921.66 "/>
  <polygon class="fil1" points="700.45,1053.33 765.61,1015.71 700.45,978.09 "/>
  <polygon class="fil1" points="895.93,827.61 961.09,789.99 895.93,752.38 "/>
  <polygon class="fil1" points="895.93,940.47 961.09,902.85 895.93,865.23 "/>
  <polygon class="fil1" points="895.93,1053.33 961.09,1015.71 895.93,978.09 "/>
  <polygon class="fil1" points="700.45,1166.18 765.61,1128.56 700.45,1090.94 "/>
  <polygon class="fil1" points="700.45,1279.04 765.61,1241.42 700.45,1203.8 "/>
  <polygon class="fil1" points="798.19,1109.75 863.35,1072.13 798.19,1034.52 "/>
  <polygon class="fil1" points="798.19,1222.61 863.35,1184.99 798.19,1147.37 "/>
  <polygon class="fil1" points="895.93,1166.18 961.09,1128.56 895.93,1090.94 "/>
  <polygon class="fil1" points="895.93,1279.04 961.09,1241.42 895.93,1203.8 "/>
  <polygon class="fil1" points="16.29,884.04 81.45,846.42 16.29,808.8 "/>
  <polygon class="fil1" points="16.29,996.9 81.45,959.28 16.29,921.66 "/>
  <polygon class="fil1" points="114.03,827.61 179.19,789.99 114.03,752.38 "/>
  <polygon class="fil1" points="114.03,940.47 179.19,902.85 114.03,865.23 "/>
  <polygon class="fil1" points="211.76,884.04 276.92,846.42 211.76,808.8 "/>
  <polygon class="fil1" points="211.76,996.9 276.92,959.28 211.76,921.66 "/>
  <polygon class="fil1" points="114.03,1053.33 179.19,1015.71 114.03,978.09 "/>
  <polygon class="fil1" points="16.29,1109.75 81.45,1072.13 16.29,1034.52 "/>
  <polygon class="fil1" points="16.29,1222.61 81.45,1184.99 16.29,1147.37 "/>
  <polygon class="fil1" points="114.03,1166.18 179.19,1128.56 114.03,1090.94 "/>
  <polygon class="fil1" points="114.03,1279.04 179.19,1241.42 114.03,1203.8 "/>
  <polygon class="fil1" points="211.76,1109.75 276.92,1072.13 211.76,1034.52 "/>
  <polygon class="fil1" points="211.76,1222.61 276.92,1184.99 211.76,1147.37 "/>
  <polygon class="fil1" points="309.5,827.61 374.66,789.99 309.5,752.38 "/>
  <polygon class="fil1" points="309.5,940.47 374.66,902.85 309.5,865.23 "/>
  <polygon class="fil1" points="407.24,884.04 472.4,846.42 407.24,808.8 "/>
  <polygon class="fil1" points="407.24,996.9 472.4,959.28 407.24,921.66 "/>
  <polygon class="fil1" points="309.5,1053.33 374.66,1015.71 309.5,978.09 "/>
  <polygon class="fil1" points="504.98,827.61 570.14,789.99 504.98,752.38 "/>
  <polygon class="fil1" points="504.98,940.47 570.14,902.85 504.98,865.23 "/>
  <polygon class="fil1" points="504.98,1053.33 570.14,1015.71 504.98,978.09 "/>
  <polygon class="fil1" points="309.5,1166.18 374.66,1128.56 309.5,1090.94 "/>
  <polygon class="fil1" points="309.5,1279.04 374.66,1241.42 309.5,1203.8 "/>
  <polygon class="fil1" points="407.24,1109.75 472.4,1072.13 407.24,1034.52 "/>
  <polygon class="fil1" points="407.24,1222.61 472.4,1184.99 407.24,1147.37 "/>
  <polygon class="fil1" points="504.98,1166.18 570.14,1128.56 504.98,1090.94 "/>
  <polygon class="fil1" points="504.98,1279.04 570.14,1241.42 504.98,1203.8 "/>
  <polygon class="fil1" points="798.19,1335.47 863.35,1297.85 798.19,1260.23 "/>
  <polygon class="fil1" points="798.19,1448.32 863.35,1410.7 798.19,1373.08 "/>
  <polygon class="fil1" points="895.93,1279.04 961.09,1241.42 895.93,1203.8 "/>
  <polygon class="fil1" points="895.93,1391.89 961.09,1354.28 895.93,1316.66 "/>
  <polygon class="fil1" points="895.93,1504.75 961.09,1467.13 895.93,1429.51 "/>
  <polygon class="fil1" points="798.19,1561.18 863.35,1523.56 798.19,1485.94 "/>
  <polygon class="fil1" points="798.19,884.04 863.35,846.42 798.19,808.8 "/>
  <polygon class="fil1" points="798.19,996.9 863.35,959.28 798.19,921.66 "/>
  <polygon class="fil1" points="895.93,827.61 961.09,789.99 895.93,752.38 "/>
  <polygon class="fil1" points="895.93,940.47 961.09,902.85 895.93,865.23 "/>
  <polygon class="fil1" points="895.93,1053.33 961.09,1015.71 895.93,978.09 "/>
  <polygon class="fil1" points="798.19,1109.75 863.35,1072.13 798.19,1034.52 "/>
  <polygon class="fil1" points="798.19,1222.61 863.35,1184.99 798.19,1147.37 "/>
  <polygon class="fil1" points="895.93,1166.18 961.09,1128.56 895.93,1090.94 "/>
  <polygon class="fil1" points="895.93,1279.04 961.09,1241.42 895.93,1203.8 "/>
  <polygon class="fil1" points="602.72,432.62 667.87,395 602.72,357.38 "/>
  <polygon class="fil1" points="602.72,545.47 667.87,507.85 602.72,470.23 "/>
  <polygon class="fil1" points="602.72,658.33 667.87,620.71 602.72,583.09 "/>
  <polygon class="fil1" points="602.72,771.19 667.87,733.57 602.72,695.95 "/>
  <polygon class="fil1" points="700.45,489.04 765.61,451.43 700.45,413.81 "/>
  <polygon class="fil1" points="798.19,432.62 863.35,395 798.19,357.38 "/>
  <polygon class="fil1" points="798.19,545.47 863.35,507.85 798.19,470.23 "/>
  <polygon class="fil1" points="700.45,601.9 765.61,564.28 700.45,526.66 "/>
  <polygon class="fil1" points="895.93,489.04 961.09,451.43 895.93,413.81 "/>
  <polygon class="fil1" points="895.93,601.9 961.09,564.28 895.93,526.66 "/>
  <polygon class="fil1" points="700.45,714.76 765.61,677.14 700.45,639.52 "/>
  <polygon class="fil1" points="700.45,827.61 765.61,789.99 700.45,752.38 "/>
  <polygon class="fil1" points="798.19,658.33 863.35,620.71 798.19,583.09 "/>
  <polygon class="fil1" points="798.19,771.19 863.35,733.57 798.19,695.95 "/>
  <polygon class="fil1" points="895.93,714.76 961.09,677.14 895.93,639.52 "/>
  <polygon class="fil1" points="895.93,827.61 961.09,789.99 895.93,752.38 "/>
  <polygon class="fil1" points="16.29,432.62 81.45,395 16.29,357.38 "/>
  <polygon class="fil1" points="16.29,545.47 81.45,507.85 16.29,470.23 "/>
  <polygon class="fil1" points="114.03,376.19 179.19,338.57 114.03,300.95 "/>
  <polygon class="fil1" points="114.03,489.04 179.19,451.43 114.03,413.81 "/>
  <polygon class="fil1" points="211.76,432.62 276.92,395 211.76,357.38 "/>
  <polygon class="fil1" points="211.76,545.47 276.92,507.85 211.76,470.23 "/>
  <polygon class="fil1" points="114.03,601.9 179.19,564.28 114.03,526.66 "/>
  <polygon class="fil1" points="16.29,658.33 81.45,620.71 16.29,583.09 "/>
  <polygon class="fil1" points="16.29,771.19 81.45,733.57 16.29,695.95 "/>
  <polygon class="fil1" points="114.03,714.76 179.19,677.14 114.03,639.52 "/>
  <polygon class="fil1" points="114.03,827.61 179.19,789.99 114.03,752.38 "/>
  <polygon class="fil1" points="211.76,658.33 276.92,620.71 211.76,583.09 "/>
  <polygon class="fil1" points="211.76,771.19 276.92,733.57 211.76,695.95 "/>
  <polygon class="fil1" points="309.5,376.19 374.66,338.57 309.5,300.95 "/>
  <polygon class="fil1" points="309.5,489.04 374.66,451.43 309.5,413.81 "/>
  <polygon class="fil1" points="407.24,432.62 472.4,395 407.24,357.38 "/>
  <polygon class="fil1" points="407.24,545.47 472.4,507.85 407.24,470.23 "/>
  <polygon class="fil1" points="309.5,601.9 374.66,564.28 309.5,526.66 "/>
  <polygon class="fil1" points="504.98,376.19 570.14,338.57 504.98,300.95 "/>
  <polygon class="fil1" points="504.98,489.04 570.14,451.43 504.98,413.81 "/>
  <polygon class="fil1" points="504.98,601.9 570.14,564.28 504.98,526.66 "/>
  <polygon class="fil1" points="309.5,714.76 374.66,677.14 309.5,639.52 "/>
  <polygon class="fil1" points="309.5,827.61 374.66,789.99 309.5,752.38 "/>
  <polygon class="fil1" points="407.24,658.33 472.4,620.71 407.24,583.09 "/>
  <polygon class="fil1" points="407.24,771.19 472.4,733.57 407.24,695.95 "/>
  <polygon class="fil1" points="504.98,714.76 570.14,677.14 504.98,639.52 "/>
  <polygon class="fil1" points="504.98,827.61 570.14,789.99 504.98,752.38 "/>
  <polygon class="fil1" points="602.72,94.05 667.87,56.43 602.72,18.81 "/>
  <polygon class="fil1" points="602.72,206.9 667.87,169.28 602.72,131.67 "/>
  <polygon class="fil1" points="602.72,319.76 667.87,282.14 602.72,244.52 "/>
  <polygon class="fil1" points="798.19,94.05 863.35,56.43 798.19,18.81 "/>
  <polygon class="fil1" points="700.45,150.48 765.61,112.86 700.45,75.24 "/>
  <polygon class="fil1" points="895.93,150.48 961.09,112.86 895.93,75.24 "/>
  <polygon class="fil1" points="700.45,263.33 765.61,225.71 700.45,188.09 "/>
  <polygon class="fil1" points="700.45,376.19 765.61,338.57 700.45,300.95 "/>
  <polygon class="fil1" points="798.19,206.9 863.35,169.28 798.19,131.67 "/>
  <polygon class="fil1" points="798.19,319.76 863.35,282.14 798.19,244.52 "/>
  <polygon class="fil1" points="895.93,263.33 961.09,225.71 895.93,188.09 "/>
  <polygon class="fil1" points="895.93,376.19 961.09,338.57 895.93,300.95 "/>
  <polygon class="fil1" points="16.29,94.05 81.45,56.43 16.29,18.81 "/>
  <polygon class="fil1" points="211.76,94.05 276.92,56.43 211.76,18.81 "/>
  <polygon class="fil1" points="114.03,150.48 179.19,112.86 114.03,75.24 "/>
  <polygon class="fil1" points="16.29,206.9 81.45,169.28 16.29,131.67 "/>
  <polygon class="fil1" points="16.29,319.76 81.45,282.14 16.29,244.52 "/>
  <polygon class="fil1" points="114.03,263.33 179.19,225.71 114.03,188.09 "/>
  <polygon class="fil1" points="114.03,376.19 179.19,338.57 114.03,300.95 "/>
  <polygon class="fil1" points="211.76,206.9 276.92,169.28 211.76,131.67 "/>
  <polygon class="fil1" points="211.76,319.76 276.92,282.14 211.76,244.52 "/>
  <polygon class="fil1" points="407.24,94.05 472.4,56.43 407.24,18.81 "/>
  <polygon class="fil1" points="309.5,150.48 374.66,112.86 309.5,75.24 "/>
  <polygon class="fil1" points="504.98,150.48 570.14,112.86 504.98,75.24 "/>
  <polygon class="fil1" points="309.5,263.33 374.66,225.71 309.5,188.09 "/>
  <polygon class="fil1" points="309.5,376.19 374.66,338.57 309.5,300.95 "/>
  <polygon class="fil1" points="407.24,206.9 472.4,169.28 407.24,131.67 "/>
  <polygon class="fil1" points="407.24,319.76 472.4,282.14 407.24,244.52 "/>
  <polygon class="fil1" points="504.98,263.33 570.14,225.71 504.98,188.09 "/>
  <polygon class="fil1" points="504.98,376.19 570.14,338.57 504.98,300.95 "/>
  <polygon class="fil1" points="798.19,432.62 863.35,395 798.19,357.38 "/>
  <polygon class="fil1" points="798.19,545.47 863.35,507.85 798.19,470.23 "/>
  <polygon class="fil1" points="895.93,376.19 961.09,338.57 895.93,300.95 "/>
  <polygon class="fil1" points="895.93,489.04 961.09,451.43 895.93,413.81 "/>
  <polygon class="fil1" points="895.93,601.9 961.09,564.28 895.93,526.66 "/>
  <polygon class="fil1" points="798.19,658.33 863.35,620.71 798.19,583.09 "/>
  <polygon class="fil1" points="798.19,771.19 863.35,733.57 798.19,695.95 "/>
  <polygon class="fil1" points="895.93,714.76 961.09,677.14 895.93,639.52 "/>
  <polygon class="fil1" points="895.93,827.61 961.09,789.99 895.93,752.38 "/>
  <polygon class="fil1" points="798.19,94.05 863.35,56.43 798.19,18.81 "/>
  <polygon class="fil1" points="895.93,150.48 961.09,112.86 895.93,75.24 "/>
  <polygon class="fil1" points="798.19,206.9 863.35,169.28 798.19,131.67 "/>
  <polygon class="fil1" points="798.19,319.76 863.35,282.14 798.19,244.52 "/>
  <polygon class="fil1" points="895.93,263.33 961.09,225.71 895.93,188.09 "/>
  <polygon class="fil1" points="895.93,376.19 961.09,338.57 895.93,300.95 "/>
  <polygon class="fil1" points="504.98,37.62 570.14,0 504.98,0 "/>
  <polygon class="fil1" points="700.45,37.62 765.61,0 700.45,0 "/>
  <polygon class="fil1" points="602.71,94.05 667.87,56.43 602.71,18.81 "/>
  <polygon class="fil1" points="798.19,94.05 863.35,56.43 798.19,18.81 "/>
  <polygon class="fil1" points="114.03,37.62 179.19,0 114.03,0 "/>
  <polygon class="fil1" points="16.29,94.05 81.45,56.43 16.29,18.81 "/>
  <polygon class="fil1" points="309.5,37.62 374.66,0 309.5,0 "/>
  <polygon class="fil1" points="211.76,94.05 276.92,56.43 211.76,18.81 "/>
  <polygon class="fil1" points="407.24,94.05 472.4,56.43 407.24,18.81 "/>
  <polygon class="fil1" points="700.45,37.62 765.61,0 700.45,0 "/>
  <polygon class="fil1" points="895.93,37.62 961.09,0 895.93,0 "/>
  <polygon class="fil1" points="798.19,94.05 863.35,56.43 798.19,18.81 "/>
  <polygon class="fil1" points="602.72,1561.18 667.87,1523.56 602.72,1485.94 "/>
  <polygon class="fil1" points="798.19,1561.18 863.35,1523.56 798.19,1485.94 "/>
  <polygon class="fil1" points="765.61,1579.99 700.45,1542.37 700.45,1579.99 "/>
  <polygon class="fil1" points="961.09,1579.99 895.93,1542.37 895.93,1579.99 "/>
  <polygon class="fil1" points="16.29,1561.18 81.45,1523.56 16.29,1485.94 "/>
  <polygon class="fil1" points="211.76,1561.18 276.92,1523.56 211.76,1485.94 "/>
  <polygon class="fil1" points="179.19,1579.99 114.03,1542.37 114.03,1579.99 "/>
  <polygon class="fil1" points="407.24,1561.18 472.4,1523.56 407.24,1485.94 "/>
  <polygon class="fil1" points="374.66,1579.99 309.5,1542.37 309.5,1579.99 "/>
  <polygon class="fil1" points="570.14,1579.99 504.98,1542.37 504.98,1579.99 "/>
  <polygon class="fil1" points="798.19,1561.18 863.35,1523.56 798.19,1485.94 "/>
  <polygon class="fil1" points="961.09,1579.99 895.93,1542.37 895.93,1579.99 "/>
 </g>
</svg>
