<?xml version="1.0" encoding="UTF-8"?>
<!DOCTYPE svg PUBLIC "-//W3C//DTD SVG 1.1//EN" "http://www.w3.org/Graphics/SVG/1.1/DTD/svg11.dtd">
<!-- Creator: CorelDRAW 2018 (64 Bit Versión de evaluación) -->
<svg xmlns="http://www.w3.org/2000/svg" xml:space="preserve" width="1451px" height="1451px" version="1.1" style="shape-rendering:geometricPrecision; text-rendering:geometricPrecision; image-rendering:optimizeQuality; fill-rule:evenodd; clip-rule:evenodd"
viewBox="0 0 1364.35 1364.35"
 xmlns:xlink="http://www.w3.org/1999/xlink">
 <defs>
  <style type="text/css">
   <![CDATA[
    .fil1 {fill:black}
    .fil2 {fill:#050505}
    .fil0 {fill:url(#id0)}
   ]]>
  </style>
  <linearGradient id="id0" gradientUnits="userSpaceOnUse" x1="682.17" y1="273.23" x2="682.17" y2="1091.12">
   <stop offset="0" style="stop-opacity:1; stop-color:yellow"/>
   <stop offset="0.501961" style="stop-opacity:1; stop-color:fuchsia"/>
   <stop offset="1" style="stop-opacity:1; stop-color:aqua"/>
  </linearGradient>
 </defs>
 <g id="Layer_x0020_1">
  <metadata id="CorelCorpID_0Corel-Layer"/>
  <polygon class="fil0" points="1091.12,273.23 1091.12,1091.12 273.23,1091.12 273.23,273.23 "/>
  <path class="fil1" d="M496.29 273.23l371.77 0c122.68,0 223.06,100.38 223.06,223.06l0 371.77c0,122.68 -100.38,223.06 -223.06,223.06l-371.77 0c-122.69,0 -223.06,-100.38 -223.06,-223.06l0 -371.77c0,-122.68 100.37,-223.06 223.06,-223.06zm668.25 -73.43c-266.4,-266.4 -698.33,-266.4 -964.74,0 -266.4,266.41 -266.4,698.34 0,964.74 266.41,266.41 698.34,266.41 964.74,0 266.41,-266.4 266.41,-698.33 0,-964.74z"/>
  <path class="fil1" d="M508.68 347.58c-88.6,0 -161.1,72.5 -161.1,161.1l0 346.99c0,88.6 72.5,161.1 161.1,161.1l346.99 0c88.6,0 161.1,-72.5 161.1,-161.1l0 -346.99c0,-88.6 -72.5,-161.1 -161.1,-161.1l-346.99 0zm173.49 122.68c117.04,0 211.91,94.88 211.91,211.91 0,117.04 -94.87,211.91 -211.91,211.91 -117.03,0 -211.91,-94.87 -211.91,-211.91 0,-117.03 94.88,-211.91 211.91,-211.91zm168.99 -6.64c0,-27.38 22.19,-49.57 49.57,-49.57 27.38,0 49.57,22.19 49.57,49.57 0,27.37 -22.19,49.57 -49.57,49.57 -27.38,0 -49.57,-22.2 -49.57,-49.57z"/>
  <path class="fil1" d="M682.17 545.86c-75.28,0 -136.31,61.03 -136.31,136.31 0,75.29 61.03,136.32 136.31,136.32 75.29,0 136.32,-61.03 136.32,-136.32 0,-75.28 -61.03,-136.31 -136.32,-136.31z"/>
  <polygon class="fil2" points="628.83,1298.14 735.52,1236.54 628.83,1174.95 "/>
  <polygon class="fil2" points="1108.93,651.37 1215.62,589.78 1108.93,528.18 "/>
  <polygon class="fil2" points="1108.93,836.17 1215.62,774.57 1108.93,712.97 "/>
  <polygon class="fil2" points="1108.93,1020.96 1215.62,959.36 1108.93,897.76 "/>
  <polygon class="fil2" points="148.72,466.58 255.41,404.99 148.72,343.39 "/>
  <polygon class="fil2" points="148.72,651.37 255.41,589.78 148.72,528.18 "/>
  <polygon class="fil2" points="148.72,836.17 255.41,774.57 148.72,712.97 "/>
  <polygon class="fil2" points="148.72,1020.96 255.41,959.36 148.72,897.76 "/>
  <polygon class="fil2" points="1108.93,466.58 1215.62,404.99 1108.93,343.39 "/>
  <polygon class="fil2" points="148.72,466.58 255.41,404.99 148.72,343.39 "/>
  <polygon class="fil2" points="628.83,189.4 735.52,127.8 628.83,66.2 "/>
  <path class="fil2" d="M310.54 373.16c20.61,-30.92 48.71,-56.47 81.66,-73.99l-44.94 -25.94 -38.5 -22.24 0 22.24 0 100.96 1.78 -1.03z"/>
  <path class="fil2" d="M468.79 158.6l0 114.63 0 1.7c4.68,-0.59 9.39,-1.02 14.15,-1.31l0.69 -0.39 91.85 -53.03 -106.69 -61.6z"/>
  <polygon class="fil2" points="788.86,158.6 788.86,273.23 803.7,273.23 895.55,220.2 "/>
  <polygon class="fil2" points="667.34,273.23 628.83,250.99 628.83,273.23 "/>
  <polygon class="fil2" points="674.91,347.58 628.83,347.58 628.83,374.19 "/>
  <path class="fil2" d="M575.48 404.99l-95.09 -54.9c-3.92,0.7 -7.78,1.54 -11.6,2.52l0 113.97 106.69 -61.59z"/>
  <path class="fil2" d="M415.45 497.38l-60.98 -35.21c-4.48,14.74 -6.89,30.36 -6.89,46.51l0 27.88 67.87 -39.18z"/>
  <polygon class="fil2" points="788.86,347.58 788.86,466.58 895.55,404.99 796.12,347.58 "/>
  <path class="fil2" d="M948.9 451.87c0.91,3.76 1.4,7.7 1.4,11.75 0,4.04 -0.49,7.98 -1.4,11.74l0 83.62 67.87 -39.18 0 -11.12c0,-12.39 -1.42,-24.47 -4.11,-36.08l-63.76 -36.81 0 16.08z"/>
  <path class="fil2" d="M895.55 589.78l-33.17 -19.15c5.82,9.37 10.92,19.23 15.24,29.5l17.93 -10.35z"/>
  <path class="fil2" d="M811.31 638.41c-5.1,-15.05 -12.75,-28.92 -22.45,-41.09l0 54.05 22.45 -12.96z"/>
  <path class="fil2" d="M628.83 477.04c17.04,-4.42 34.92,-6.78 53.34,-6.78 2.19,0 4.38,0.04 6.55,0.1l-59.89 -34.57 0 41.25z"/>
  <path class="fil2" d="M640.09 552.48c-3.83,1.24 -7.59,2.65 -11.26,4.21l0 2.29 11.26 -6.5z"/>
  <path class="fil2" d="M513.44 810.39c-20.75,-27.27 -35.05,-59.73 -40.6,-95.08l-4.05 -2.34 0 123.2 44.65 -25.78z"/>
  <path class="fil2" d="M472.84 649.04c5.55,-35.36 19.85,-67.81 40.6,-95.08l-44.65 -25.78 0 123.19 4.05 -2.33z"/>
  <path class="fil2" d="M788.86 712.97l0 54.06c9.7,-12.17 17.35,-26.05 22.45,-41.1l-22.45 -12.96z"/>
  <path class="fil2" d="M877.62 764.21c-4.32,10.27 -9.42,20.14 -15.24,29.51l33.17 -19.15 -17.93 -10.36z"/>
  <path class="fil2" d="M640.09 811.87l-11.26 -6.5 0 2.28c3.67,1.57 7.43,2.98 11.26,4.22z"/>
  <path class="fil2" d="M682.17 894.08c-18.42,0 -36.3,-2.35 -53.34,-6.77l0 41.25 59.89 -34.58c-2.18,0.07 -4.36,0.1 -6.55,0.1z"/>
  <path class="fil2" d="M575.48 959.36l-106.69 -61.6 0 113.98c3.82,0.98 7.68,1.82 11.6,2.52l95.09 -54.9z"/>
  <polygon class="fil2" points="628.83,990.16 628.83,1016.77 674.91,1016.77 "/>
  <path class="fil2" d="M575.48 1144.15l-91.85 -53.03 -0.69 -0.4c-4.76,-0.28 -9.48,-0.72 -14.15,-1.3l0 1.7 0 114.63 106.69 -61.6z"/>
  <polygon class="fil2" points="628.83,1091.12 628.83,1113.35 667.33,1091.12 "/>
  <path class="fil2" d="M347.26 1091.12l44.94 -25.94c-32.95,-17.53 -61.05,-43.07 -81.66,-73.99l-1.78 -1.03 0 100.96 0 22.23 38.5 -22.23z"/>
  <polygon class="fil2" points="347.58,721.36 415.45,682.17 347.58,642.99 "/>
  <path class="fil2" d="M415.45 866.96l-67.87 -39.18 0 27.89c0,16.15 2.41,31.76 6.89,46.5l60.98 -35.21z"/>
  <polygon class="fil2" points="788.86,897.76 788.86,1016.77 796.12,1016.77 895.55,959.36 "/>
  <polygon class="fil2" points="803.7,1091.12 788.86,1091.12 788.86,1205.75 895.55,1144.15 "/>
  <path class="fil2" d="M1019.86 1031.13c-20.47,19.08 -44.51,34.37 -70.96,44.74l0 15.25 0 22.23 38.51 -22.23 68.18 -39.37 -35.73 -20.62z"/>
  <path class="fil2" d="M948.9 928.56l63.76 -36.82c2.69,-11.6 4.11,-23.68 4.11,-36.07l0 -11.12 -67.87 -39.18 0 123.19z"/>
  <polygon class="fil2" points="948.9,743.77 1016.77,704.59 1016.77,659.76 948.9,620.58 "/>
  <path class="fil2" d="M948.9 288.47c26.45,10.37 50.49,25.67 70.96,44.75l35.73 -20.63 -68.18 -39.36 -38.51 -22.24 0 22.24 0 15.24z"/>
  <polygon class="fil2" points="735.52,682.17 628.83,620.58 628.83,743.77 "/>
 </g>
</svg>
