<?xml version="1.0" encoding="UTF-8"?>
<!DOCTYPE svg PUBLIC "-//W3C//DTD SVG 1.1//EN" "http://www.w3.org/Graphics/SVG/1.1/DTD/svg11.dtd">
<!-- Creator: CorelDRAW 2018 (64 Bit Versión de evaluación) -->
<svg xmlns="http://www.w3.org/2000/svg" xml:space="preserve" width="296px" height="20px" version="1.1" style="shape-rendering:geometricPrecision; text-rendering:geometricPrecision; image-rendering:optimizeQuality; fill-rule:evenodd; clip-rule:evenodd"
viewBox="0 0 192.39 12.98"
 xmlns:xlink="http://www.w3.org/1999/xlink">
 <defs>
  <style type="text/css">
   <![CDATA[
    .fil9 {fill:url(#id0)}
    .fil5 {fill:url(#id1)}
    .fil11 {fill:url(#id2)}
    .fil8 {fill:url(#id3)}
    .fil6 {fill:url(#id4)}
    .fil14 {fill:url(#id5)}
    .fil12 {fill:url(#id6)}
    .fil0 {fill:url(#id7)}
    .fil13 {fill:url(#id8)}
    .fil10 {fill:url(#id9)}
    .fil3 {fill:url(#id10)}
    .fil2 {fill:url(#id11)}
    .fil1 {fill:url(#id12)}
    .fil7 {fill:url(#id13)}
    .fil4 {fill:url(#id14)}
    .fil15 {fill:url(#id15)}
   ]]>
  </style>
  <linearGradient id="id0" gradientUnits="userSpaceOnUse" x1="106.23" y1="6.49" x2="115.67" y2="6.49">
   <stop offset="0" style="stop-opacity:1; stop-color:#E619FF"/>
   <stop offset="1" style="stop-opacity:1; stop-color:#CE31FF"/>
  </linearGradient>
  <linearGradient id="id1" gradientUnits="userSpaceOnUse" x1="59.02" y1="6.49" x2="68.46" y2="6.49">
   <stop offset="0" style="stop-opacity:1; stop-color:#FF659A"/>
   <stop offset="1" style="stop-opacity:1; stop-color:#FF4BB4"/>
  </linearGradient>
  <linearGradient id="id2" gradientUnits="userSpaceOnUse" x1="135.73" y1="6.49" x2="145.18" y2="6.49">
   <stop offset="0" style="stop-opacity:1; stop-color:#9966FF"/>
   <stop offset="1" style="stop-opacity:1; stop-color:#7E81FF"/>
  </linearGradient>
  <linearGradient id="id3" gradientUnits="userSpaceOnUse" x1="94.42" y1="6.49" x2="103.87" y2="6.49">
   <stop offset="0" style="stop-opacity:1; stop-color:#FF07F8"/>
   <stop offset="1" style="stop-opacity:1; stop-color:#ED12FF"/>
  </linearGradient>
  <linearGradient id="id4" gradientUnits="userSpaceOnUse" x1="70.82" y1="6.49" x2="80.26" y2="6.49">
   <stop offset="0" style="stop-opacity:1; stop-color:#FF44BB"/>
   <stop offset="1" style="stop-opacity:1; stop-color:#FF2DD2"/>
  </linearGradient>
  <linearGradient id="id5" gradientUnits="userSpaceOnUse" x1="171.14" y1="6.49" x2="180.58" y2="6.49">
   <stop offset="0" style="stop-opacity:1; stop-color:#3AC5FF"/>
   <stop offset="1" style="stop-opacity:1; stop-color:#21DEFF"/>
  </linearGradient>
  <linearGradient id="id6" gradientUnits="userSpaceOnUse" x1="147.54" y1="6.49" x2="156.98" y2="6.49">
   <stop offset="0" style="stop-opacity:1; stop-color:#7986FF"/>
   <stop offset="1" style="stop-opacity:1; stop-color:#619EFF"/>
  </linearGradient>
  <linearGradient id="id7" gradientUnits="userSpaceOnUse" x1="0" y1="6.49" x2="9.44" y2="6.49">
   <stop offset="0" style="stop-opacity:1; stop-color:yellow"/>
   <stop offset="1" style="stop-opacity:1; stop-color:#FFE817"/>
  </linearGradient>
  <linearGradient id="id8" gradientUnits="userSpaceOnUse" x1="159.34" y1="6.49" x2="168.78" y2="6.49">
   <stop offset="0" style="stop-opacity:1; stop-color:#59A6FF"/>
   <stop offset="1" style="stop-opacity:1; stop-color:#41BEFF"/>
  </linearGradient>
  <linearGradient id="id9" gradientUnits="userSpaceOnUse" x1="123.93" y1="6.49" x2="133.37" y2="6.49">
   <stop offset="0" style="stop-opacity:1; stop-color:#B847FF"/>
   <stop offset="1" style="stop-opacity:1; stop-color:#9F60FF"/>
  </linearGradient>
  <linearGradient id="id10" gradientUnits="userSpaceOnUse" x1="35.41" y1="6.49" x2="44.85" y2="6.49">
   <stop offset="0" style="stop-opacity:1; stop-color:#FFA25D"/>
   <stop offset="1" style="stop-opacity:1; stop-color:#FF8A75"/>
  </linearGradient>
  <linearGradient id="id11" gradientUnits="userSpaceOnUse" x1="23.61" y1="6.49" x2="33.05" y2="6.49">
   <stop offset="0" style="stop-opacity:1; stop-color:#FFC23D"/>
   <stop offset="1" style="stop-opacity:1; stop-color:#FFAA55"/>
  </linearGradient>
  <linearGradient id="id12" gradientUnits="userSpaceOnUse" x1="11.8" y1="6.49" x2="21.25" y2="6.49">
   <stop offset="0" style="stop-opacity:1; stop-color:#FFE31C"/>
   <stop offset="1" style="stop-opacity:1; stop-color:#FFC936"/>
  </linearGradient>
  <linearGradient id="id13" gradientUnits="userSpaceOnUse" x1="82.62" y1="6.49" x2="92.06" y2="6.49">
   <stop offset="0" style="stop-opacity:1; stop-color:#FF28D7"/>
   <stop offset="1" style="stop-opacity:1; stop-color:#FF0EF1"/>
  </linearGradient>
  <linearGradient id="id14" gradientUnits="userSpaceOnUse" x1="47.21" y1="6.49" x2="56.65" y2="6.49">
   <stop offset="0" style="stop-opacity:1; stop-color:#FF857A"/>
   <stop offset="1" style="stop-opacity:1; stop-color:#FF6C93"/>
  </linearGradient>
  <linearGradient id="id15" gradientUnits="userSpaceOnUse" x1="182.95" y1="6.49" x2="192.39" y2="6.49">
   <stop offset="0" style="stop-opacity:1; stop-color:#1CE3FF"/>
   <stop offset="1" style="stop-opacity:1; stop-color:aqua"/>
  </linearGradient>
 </defs>
 <g id="Capa_x0020_1">
  <metadata id="CorelCorpID_0Corel-Layer"/>
  <g id="_1888855037408">
   <polygon class="fil0" points="9.44,2.36 9.44,0 0,0 0,2.36 3.54,2.36 3.54,12.98 5.9,12.98 5.9,2.36 "/>
   <path class="fil1" d="M11.8 0l0 8.26c0,2.6 2.13,4.72 4.72,4.72 2.6,0 4.73,-2.12 4.73,-4.72l0 -8.26 -2.36 0 0 8.26c0,1.3 -1.07,2.36 -2.37,2.36 -1.29,0 -2.36,-1.06 -2.36,-2.36l0 -8.26 -2.36 0z"/>
   <polygon class="fil2" points="23.61,0 23.61,2.36 27.15,2.36 27.15,12.98 29.51,12.98 29.51,2.36 33.05,2.36 33.05,0 "/>
   <path class="fil3" d="M40.13 0c-2.6,0 -4.72,2.12 -4.72,4.72l0 0.59 0 2.36 0 0.59c0,2.6 2.12,4.72 4.72,4.72 2.6,0 4.72,-2.12 4.72,-4.72l0 -0.59 0 -2.36 0 -0.59c0,-2.6 -2.12,-4.72 -4.72,-4.72zm0 2.36c1.3,0 2.36,1.06 2.36,2.36l0 0.59 0 2.36 0 0.59c0,1.3 -1.06,2.36 -2.36,2.36 -1.3,0 -2.36,-1.06 -2.36,-2.36l0 -0.59 0 -2.36 0 -0.59c0,-1.3 1.06,-2.36 2.36,-2.36z"/>
   <path class="fil4" d="M47.21 0l0 12.98 2.36 0 0 -5.31 4 5.31 3.08 0 -4 -5.31 0.46 0c1.96,0 3.54,-1.72 3.54,-3.83 0,-2.12 -1.58,-3.84 -3.54,-3.84l-5.9 0zm2.36 2.36l3.54 0c0.75,0 1.18,0.81 1.18,1.48 0,0.66 -0.43,1.47 -1.18,1.47l-3.54 0 0 -2.95z"/>
   <polygon class="fil5" points="59.02,0 59.02,2.36 62.56,2.36 62.56,10.62 59.02,10.62 59.02,12.98 68.46,12.98 68.46,10.62 64.92,10.62 64.92,2.36 68.46,2.36 68.46,0 "/>
   <path class="fil6" d="M74.36 0l-2.04 7.47 -0.64 2.37 -0.86 3.14 2.36 0 0.86 -3.14 1.5 0 1.5 0 0.86 3.14 2.36 0 -0.86 -3.14 -0.64 -2.37 -2.04 -7.47 -2.36 0zm0.32 7.47l0.86 -3.14 0.86 3.14 -0.86 0 -0.86 0z"/>
   <polygon class="fil7" points="82.62,0 82.62,12.98 92.06,12.98 92.06,10.62 84.98,10.62 84.98,0 "/>
   <polygon class="fil8" points="94.42,0 94.42,12.98 103.87,12.98 103.87,10.62 96.79,10.62 96.79,7.67 103.87,7.67 103.87,5.31 96.79,5.31 96.79,2.36 103.87,2.36 103.87,0 "/>
   <path class="fil9" d="M106.5 2.36c-0.18,0.45 -0.27,0.95 -0.27,1.48 0,0.52 0.09,1.02 0.27,1.47 0.53,1.39 1.8,2.36 3.27,2.36l2.36 0c0.74,0 1.18,0.81 1.18,1.48 0,0.66 -0.44,1.47 -1.18,1.47l-2.36 0c-0.65,0 -1.18,-0.53 -1.18,-1.18l-2.36 0c0,0.42 0.07,0.81 0.2,1.18 0.49,1.37 1.8,2.36 3.34,2.36l2.36 0c1.47,0 2.73,-0.97 3.27,-2.36 0.17,-0.45 0.27,-0.95 0.27,-1.47 0,-0.53 -0.1,-1.02 -0.27,-1.48 -0.54,-1.38 -1.8,-2.36 -3.27,-2.36l-2.36 0c-0.74,0 -1.18,-0.81 -1.18,-1.47 0,-0.67 0.44,-1.48 1.18,-1.48l2.36 0c0.65,0 1.18,0.53 1.18,1.18l2.36 0c0,-0.41 -0.07,-0.81 -0.2,-1.18 -0.49,-1.37 -1.81,-2.36 -3.34,-2.36l-2.36 0c-1.47,0 -2.74,0.97 -3.27,2.36z"/>
   <polygon class="fil10" points="123.93,0 123.93,12.98 133.37,12.98 133.37,10.62 126.29,10.62 126.29,7.67 133.37,7.67 133.37,5.31 126.29,5.31 126.29,2.36 133.37,2.36 133.37,0 "/>
   <polygon class="fil11" points="135.73,0 139.28,6.49 135.73,12.98 138.1,12.98 140.46,8.66 142.82,12.98 145.18,12.98 141.64,6.49 145.18,0 142.82,0 140.46,4.33 138.1,0 "/>
   <path class="fil12" d="M147.54 0l0 12.98 2.36 0 0 -5.31 3.54 0c1.95,0 3.54,-1.72 3.54,-3.83 0,-2.12 -1.59,-3.84 -3.54,-3.84l-5.9 0zm2.36 2.36l3.54 0c0.74,0 1.18,0.81 1.18,1.48 0,0.66 -0.44,1.47 -1.18,1.47l-3.54 0 0 -2.95z"/>
   <path class="fil13" d="M159.34 0l0 12.98 2.36 0 0 -5.31 4 5.31 3.08 0 -4 -5.31 0.46 0c1.96,0 3.54,-1.72 3.54,-3.83 0,-2.12 -1.58,-3.84 -3.54,-3.84l-5.9 0zm2.36 2.36l3.54 0c0.74,0 1.18,0.81 1.18,1.48 0,0.66 -0.44,1.47 -1.18,1.47l-3.54 0 0 -2.95z"/>
   <polygon class="fil14" points="171.14,0 171.14,12.98 180.58,12.98 180.58,10.62 173.5,10.62 173.5,7.67 180.58,7.67 180.58,5.31 173.5,5.31 173.5,2.36 180.58,2.36 180.58,0 "/>
   <path class="fil15" d="M186.49 0c-1.48,0 -2.74,0.97 -3.27,2.36 -0.18,0.46 -0.28,0.95 -0.28,1.48 0,0.52 0.1,1.02 0.28,1.47 0.53,1.39 1.79,2.36 3.27,2.36l2.36 0c0.74,0 1.18,0.81 1.18,1.48 0,0.66 -0.44,1.47 -1.18,1.47l-2.36 0c-0.65,0 -1.18,-0.53 -1.18,-1.18l-2.37 0c0,0.42 0.08,0.81 0.21,1.18 0.49,1.37 1.8,2.36 3.34,2.36l2.36 0c1.47,0 2.73,-0.97 3.27,-2.36 0.17,-0.45 0.27,-0.95 0.27,-1.47 0,-0.53 -0.1,-1.02 -0.27,-1.48 -0.54,-1.38 -1.8,-2.36 -3.27,-2.36l-2.36 0c-0.75,0 -1.18,-0.81 -1.18,-1.47 0,-0.67 0.43,-1.48 1.18,-1.48l2.36 0c0.64,0 1.18,0.53 1.18,1.18l2.36 0c0,-0.41 -0.07,-0.81 -0.21,-1.18 -0.49,-1.37 -1.8,-2.36 -3.33,-2.36l-2.36 0z"/>
  </g>
 </g>
</svg>
