<?xml version="1.0" encoding="UTF-8"?>
<!DOCTYPE svg PUBLIC "-//W3C//DTD SVG 1.1//EN" "http://www.w3.org/Graphics/SVG/1.1/DTD/svg11.dtd">
<!-- Creator: CorelDRAW 2018 (64 Bit Versión de evaluación) -->
<svg xmlns="http://www.w3.org/2000/svg" xml:space="preserve" width="581px" height="215px" version="1.1" style="shape-rendering:geometricPrecision; text-rendering:geometricPrecision; image-rendering:optimizeQuality; fill-rule:evenodd; clip-rule:evenodd"
viewBox="0 0 582.1 215.02"
 xmlns:xlink="http://www.w3.org/1999/xlink">
 <defs>
  <style type="text/css">
   <![CDATA[
    .str0 {stroke:white;stroke-width:14.81;stroke-miterlimit:22.9256}
    .fil1 {fill:black}
    .fil0 {fill:white}
   ]]>
  </style>
 </defs>
 <g id="Capa_x0020_1">
  <metadata id="CorelCorpID_0Corel-Layer"/>
  <g id="_1888854995232">
   <polygon class="fil0 str0" points="7.4,18.98 24.77,18.98 24.77,71.08 36.35,71.08 36.35,18.98 53.71,18.98 53.71,7.4 7.4,7.4 "/>
   <path class="fil0 str0" d="M88.44 59.5l0 0zm-11.57 -11.58l0 -40.52 -11.58 0 0 40.52c0,12.74 10.42,23.16 23.16,23.16 12.73,0 23.15,-10.42 23.15,-23.16l0 -40.52 -11.58 0 0 40.53c0,6.36 -5.21,11.57 -11.58,11.57 -6.36,0 -11.57,-5.21 -11.57,-11.58z"/>
   <polygon class="fil0 str0" points="123.18,18.98 140.54,18.98 140.54,71.08 152.12,71.08 152.12,18.98 169.49,18.98 169.49,7.4 123.18,7.4 "/>
   <path class="fil0 str0" d="M192.64 30.56c0,-6.37 5.21,-11.58 11.58,-11.58 6.37,0 11.58,5.21 11.58,11.58l0 2.89 0 11.58 0 2.89c0,6.37 -5.21,11.58 -11.58,11.58 -6.37,0 -11.58,-5.21 -11.58,-11.58l0 -2.89 0 -11.58 0 -2.89zm34.73 0c0,-12.74 -10.42,-23.16 -23.15,-23.16 -12.73,0 -23.15,10.42 -23.15,23.16l0 2.89 -0.01 11.58 0.01 2.89c0,12.74 10.42,23.16 23.15,23.16 12.73,0 23.15,-10.42 23.15,-23.16l0 -2.89 0 -11.58 0 -2.89z"/>
   <path class="fil0 str0" d="M285.26 71.08l-19.62 -26.05 2.25 0c9.6,0 17.37,-8.42 17.37,-18.81 0,-10.39 -7.77,-18.82 -17.37,-18.82l-28.94 0 0 63.68 11.58 0 0 -26.05 19.62 26.05 15.11 0zm-17.37 -37.63l-17.36 0 0 -14.47 17.36 0c3.65,0 5.79,3.96 5.79,7.24 0,3.27 -2.14,7.23 -5.79,7.23z"/>
   <polygon class="fil0 str0" points="296.84,18.98 314.2,18.98 314.2,59.5 296.84,59.5 296.84,71.08 343.15,71.08 343.15,59.5 325.78,59.5 325.78,18.98 343.15,18.98 343.15,7.4 296.84,7.4 "/>
   <path class="fil0 str0" d="M382.09 44.06l-4.21 0 -4.21 0 4.21 -15.43 4.21 15.43zm-10 -36.66l-10 36.66 -3.15 11.58 -4.21 15.44 11.57 0 4.21 -15.44 7.37 0 7.37 0 4.21 15.44 11.58 0 -4.21 -15.44 -3.16 -11.58 -10 -36.66 -11.58 0z"/>
   <polygon class="fil0 str0" points="424.19,59.5 424.19,7.4 412.61,7.4 412.61,71.08 458.92,71.08 458.92,59.5 "/>
   <polygon class="fil0 str0" points="482.08,18.98 516.81,18.98 516.81,7.4 470.5,7.4 470.5,71.08 516.81,71.08 516.81,59.5 482.08,59.5 482.08,45.03 516.81,45.03 516.81,33.45 482.08,33.45 "/>
   <path class="fil0 str0" d="M557.33 33.45l-11.58 0c-3.64,0 -5.79,-3.96 -5.79,-7.23 0,-3.28 2.15,-7.24 5.79,-7.24l11.58 0c3.18,0 5.79,2.61 5.79,5.79l11.58 0c0,-2.03 -0.36,-3.98 -1,-5.79 -2.4,-6.73 -8.85,-11.58 -16.37,-11.58l-11.58 0c-7.22,0 -13.41,4.78 -16.03,11.58 -0.86,2.23 -1.33,4.67 -1.33,7.24 0,2.56 0.47,5 1.33,7.23 2.61,6.8 8.81,11.58 16.03,11.58l11.58 0c3.65,0 5.79,3.96 5.79,7.24 0,3.27 -2.14,7.23 -5.79,7.23l-11.58 0c-3.18,0 -5.79,-2.6 -5.79,-5.79l-11.57 0c0,2.03 0.35,3.98 0.99,5.79 2.4,6.73 8.85,11.58 16.37,11.58l11.58 0c7.22,0 13.42,-4.78 16.03,-11.58 0.86,-2.23 1.34,-4.67 1.34,-7.23 0,-2.57 -0.48,-5.01 -1.34,-7.24 -2.61,-6.8 -8.81,-11.58 -16.03,-11.58z"/>
   <polygon class="fil0 str0" points="26.97,119.58 85.65,119.58 85.65,100.02 7.4,100.02 7.4,207.61 85.65,207.61 85.65,188.05 26.97,188.05 26.97,163.6 85.65,163.6 85.65,144.04 26.97,144.04 "/>
   <polygon class="fil0 str0" points="183.46,207.61 154.12,153.82 183.46,100.02 163.9,100.02 144.34,135.89 124.77,100.02 105.21,100.02 134.56,153.82 105.21,207.61 124.77,207.61 144.34,171.75 163.9,207.61 "/>
   <path class="fil0 str0" d="M251.93 144.04l-29.35 0 0 -24.46 29.35 0c6.16,0 9.78,6.7 9.78,12.23 0,5.53 -3.62,12.23 -9.78,12.23zm29.34 -12.23c0,-17.56 -13.14,-31.79 -29.34,-31.79l-48.91 0 0 107.59 19.56 0 0 -44.01 29.35 0c16.2,0 29.34,-14.23 29.34,-31.79z"/>
   <path class="fil0 str0" d="M379.08 207.61l-33.15 -44.01 3.81 0c16.2,0 29.34,-14.23 29.34,-31.79 0,-17.56 -13.14,-31.79 -29.34,-31.79l-48.91 0 0 107.59 19.56 0 0 -44.01 33.15 44.01 25.54 0zm-29.34 -63.57l-29.35 0 0 -24.46 29.35 0c6.16,0 9.78,6.7 9.78,12.23 0,5.53 -3.62,12.23 -9.78,12.23z"/>
   <polygon class="fil0 str0" points="418.2,119.58 476.89,119.58 476.89,100.02 398.64,100.02 398.64,207.61 476.89,207.61 476.89,188.05 418.2,188.05 418.2,163.6 476.89,163.6 476.89,144.04 418.2,144.04 "/>
   <path class="fil0 str0" d="M545.35 144.04l-19.56 0c-6.16,0 -9.78,-6.7 -9.78,-12.23 0,-5.53 3.62,-12.23 9.78,-12.23l19.56 0c5.38,0 9.78,4.41 9.78,9.79l19.57 0c0,-3.43 -0.6,-6.72 -1.69,-9.79 -4.05,-11.36 -14.94,-19.56 -27.66,-19.56l-19.56 0c-12.2,0 -22.67,8.08 -27.09,19.56 -1.45,3.77 -2.25,7.9 -2.25,12.23 0,4.33 0.8,8.46 2.25,12.23 4.42,11.49 14.89,19.56 27.09,19.56l19.56 0c6.17,0 9.78,6.7 9.78,12.23 0,5.52 -3.61,12.22 -9.78,12.22l-19.56 0c-5.38,0 -9.78,-4.4 -9.78,-9.78l-19.56 0c0,3.43 0.59,6.72 1.69,9.78 4.05,11.37 14.94,19.56 27.65,19.56l19.56 0c12.21,0 22.67,-8.07 27.09,-19.56 1.46,-3.76 2.26,-7.89 2.26,-12.22 0,-4.34 -0.8,-8.47 -2.25,-12.23 -4.42,-11.49 -14.89,-19.56 -27.1,-19.56z"/>
  </g>
  <rect class="fil0" x="521.72" y="37.65" width="9.48" height="11.05"/>
  <rect class="fil0" x="520.63" y="122.69" width="27.44" height="17.7"/>
  <rect class="fil0" x="522.72" y="166.52" width="28.28" height="18.85"/>
  <rect class="fil0" x="227.35" y="124.89" width="29.72" height="14.76"/>
  <rect class="fil0" x="324.33" y="124.79" width="30.11" height="15.45"/>
  <rect class="fil0" x="195.09" y="24.69" width="18.3" height="29.13"/>
  <g id="_1888855006752">
   <polygon class="fil1" points="7.4,18.98 24.77,18.98 24.77,71.08 36.35,71.08 36.35,18.98 53.71,18.98 53.71,7.4 7.4,7.4 "/>
   <path class="fil1" d="M88.44 59.5l0 0zm-11.57 -11.58l0 -40.52 -11.58 0 0 40.52c0,12.74 10.42,23.16 23.16,23.16 12.73,0 23.15,-10.42 23.15,-23.16l0 -40.52 -11.58 0 0 40.53c0,6.36 -5.21,11.57 -11.58,11.57 -6.36,0 -11.57,-5.21 -11.57,-11.58z"/>
   <polygon class="fil1" points="123.18,18.98 140.54,18.98 140.54,71.08 152.12,71.08 152.12,18.98 169.49,18.98 169.49,7.4 123.18,7.4 "/>
   <path class="fil1" d="M192.64 30.56c0,-6.37 5.21,-11.58 11.58,-11.58 6.37,0 11.58,5.21 11.58,11.58l0 2.89 0 11.58 0 2.89c0,6.37 -5.21,11.58 -11.58,11.58 -6.37,0 -11.58,-5.21 -11.58,-11.58l0 -2.89 0 -11.58 0 -2.89zm34.73 0c0,-12.74 -10.42,-23.16 -23.15,-23.16 -12.73,0 -23.15,10.42 -23.15,23.16l0 2.89 -0.01 11.58 0.01 2.89c0,12.74 10.42,23.16 23.15,23.16 12.73,0 23.15,-10.42 23.15,-23.16l0 -2.89 0 -11.58 0 -2.89z"/>
   <path class="fil1" d="M285.26 71.08l-19.62 -26.05 2.25 0c9.6,0 17.37,-8.42 17.37,-18.81 0,-10.39 -7.77,-18.82 -17.37,-18.82l-28.94 0 0 63.68 11.58 0 0 -26.05 19.62 26.05 15.11 0zm-17.37 -37.63l-17.36 0 0 -14.47 17.36 0c3.65,0 5.79,3.96 5.79,7.24 0,3.27 -2.14,7.23 -5.79,7.23z"/>
   <polygon class="fil1" points="296.84,18.98 314.2,18.98 314.2,59.5 296.84,59.5 296.84,71.08 343.15,71.08 343.15,59.5 325.78,59.5 325.78,18.98 343.15,18.98 343.15,7.4 296.84,7.4 "/>
   <path class="fil1" d="M382.09 44.06l-4.21 0 -4.21 0 4.21 -15.43 4.21 15.43zm-10 -36.66l-10 36.66 -3.15 11.58 -4.21 15.44 11.57 0 4.21 -15.44 7.37 0 7.37 0 4.21 15.44 11.58 0 -4.21 -15.44 -3.16 -11.58 -10 -36.66 -11.58 0z"/>
   <polygon class="fil1" points="424.19,59.5 424.19,7.4 412.61,7.4 412.61,71.08 458.92,71.08 458.92,59.5 "/>
   <polygon class="fil1" points="482.08,18.98 516.81,18.98 516.81,7.4 470.5,7.4 470.5,71.08 516.81,71.08 516.81,59.5 482.08,59.5 482.08,45.03 516.81,45.03 516.81,33.45 482.08,33.45 "/>
   <path class="fil1" d="M557.33 33.45l-11.58 0c-3.64,0 -5.79,-3.96 -5.79,-7.23 0,-3.28 2.15,-7.24 5.79,-7.24l11.58 0c3.18,0 5.79,2.61 5.79,5.79l11.58 0c0,-2.03 -0.36,-3.98 -1,-5.79 -2.4,-6.73 -8.85,-11.58 -16.37,-11.58l-11.58 0c-7.22,0 -13.41,4.78 -16.03,11.58 -0.86,2.23 -1.33,4.67 -1.33,7.24 0,2.56 0.47,5 1.33,7.23 2.61,6.8 8.81,11.58 16.03,11.58l11.58 0c3.65,0 5.79,3.96 5.79,7.24 0,3.27 -2.14,7.23 -5.79,7.23l-11.58 0c-3.18,0 -5.79,-2.6 -5.79,-5.79l-11.57 0c0,2.03 0.35,3.98 0.99,5.79 2.4,6.73 8.85,11.58 16.37,11.58l11.58 0c7.22,0 13.42,-4.78 16.03,-11.58 0.86,-2.23 1.34,-4.67 1.34,-7.23 0,-2.57 -0.48,-5.01 -1.34,-7.24 -2.61,-6.8 -8.81,-11.58 -16.03,-11.58z"/>
   <polygon class="fil1" points="26.97,119.58 85.65,119.58 85.65,100.02 7.4,100.02 7.4,207.61 85.65,207.61 85.65,188.05 26.97,188.05 26.97,163.6 85.65,163.6 85.65,144.04 26.97,144.04 "/>
   <polygon class="fil1" points="183.46,207.61 154.12,153.82 183.46,100.02 163.9,100.02 144.34,135.89 124.77,100.02 105.21,100.02 134.56,153.82 105.21,207.61 124.77,207.61 144.34,171.75 163.9,207.61 "/>
   <path class="fil1" d="M251.93 144.04l-29.35 0 0 -24.46 29.35 0c6.16,0 9.78,6.7 9.78,12.23 0,5.53 -3.62,12.23 -9.78,12.23zm29.34 -12.23c0,-17.56 -13.14,-31.79 -29.34,-31.79l-48.91 0 0 107.59 19.56 0 0 -44.01 29.35 0c16.2,0 29.34,-14.23 29.34,-31.79z"/>
   <path class="fil1" d="M379.08 207.61l-33.15 -44.01 3.81 0c16.2,0 29.34,-14.23 29.34,-31.79 0,-17.56 -13.14,-31.79 -29.34,-31.79l-48.91 0 0 107.59 19.56 0 0 -44.01 33.15 44.01 25.54 0zm-29.34 -63.57l-29.35 0 0 -24.46 29.35 0c6.16,0 9.78,6.7 9.78,12.23 0,5.53 -3.62,12.23 -9.78,12.23z"/>
   <polygon class="fil1" points="418.2,119.58 476.89,119.58 476.89,100.02 398.64,100.02 398.64,207.61 476.89,207.61 476.89,188.05 418.2,188.05 418.2,163.6 476.89,163.6 476.89,144.04 418.2,144.04 "/>
   <path class="fil1" d="M545.35 144.04l-19.56 0c-6.16,0 -9.78,-6.7 -9.78,-12.23 0,-5.53 3.62,-12.23 9.78,-12.23l19.56 0c5.38,0 9.78,4.41 9.78,9.79l19.57 0c0,-3.43 -0.6,-6.72 -1.69,-9.79 -4.05,-11.36 -14.94,-19.56 -27.66,-19.56l-19.56 0c-12.2,0 -22.67,8.08 -27.09,19.56 -1.45,3.77 -2.25,7.9 -2.25,12.23 0,4.33 0.8,8.46 2.25,12.23 4.42,11.49 14.89,19.56 27.09,19.56l19.56 0c6.17,0 9.78,6.7 9.78,12.23 0,5.52 -3.61,12.22 -9.78,12.22l-19.56 0c-5.38,0 -9.78,-4.4 -9.78,-9.78l-19.56 0c0,3.43 0.59,6.72 1.69,9.78 4.05,11.37 14.94,19.56 27.65,19.56l19.56 0c12.21,0 22.67,-8.07 27.09,-19.56 1.46,-3.76 2.26,-7.89 2.26,-12.22 0,-4.34 -0.8,-8.47 -2.25,-12.23 -4.42,-11.49 -14.89,-19.56 -27.1,-19.56z"/>
  </g>
 </g>
</svg>
